<svg xmlns="http://www.w3.org/2000/svg" viewBox="0 0 500 500"><defs><style>.cls-1{fill:#03234b;}</style></defs><g id="Layer_1" data-name="Layer 1"><path class="cls-1" d="M199,18.08c-127.88,28.15-209,155.09-180.86,283s155.09,209,283,180.87,209-155.1,180.86-283S326.82-10.07,199,18.08Zm99.8,453.32C176.66,498.28,55.47,420.82,28.59,298.74S79.18,55.47,201.26,28.6,444.53,79.18,471.41,201.26,420.82,444.53,298.75,471.4Z"/><path class="cls-1" d="M202,32.09C81.87,58.54,5.64,177.82,32.09,298S177.81,494.36,298,467.9,494.36,322.18,467.91,202,322.19,5.64,202,32.09Zm95.43,433.48c-118.87,26.17-236.87-49.25-263-168.11S83.68,60.6,202.54,34.43s236.86,49.24,263,168.11S416.32,439.41,297.46,465.57Z"/><path class="cls-1" d="M216.43,97.5C132.34,116,79,199.48,97.5,283.57S199.49,421,283.58,402.5,421,300.51,402.5,216.43,300.51,79,216.43,97.5Zm65.34,296.82c-79.58,17.52-158.58-33-176.1-112.55s33-158.58,112.56-176.09,158.58,33,176.09,112.55S361.35,376.8,281.77,394.32Z"/><path class="cls-1" d="M408,215.21C388.85,128.07,302.35,72.78,215.21,92S72.79,197.65,92,284.79,197.65,427.21,284.79,408,427.21,302.35,408,215.21ZM284.28,405.69c-85.86,18.9-171.08-35.56-190-121.42s35.56-171.07,121.42-190,171.07,35.56,190,121.41S370.13,386.8,284.28,405.69Z"/><polygon class="cls-1" points="115.17 145.79 107.6 140.93 97.49 156.69 71.27 139.87 65.62 148.66 99.41 170.35 115.17 145.79"/><path class="cls-1" d="M130.51,130.83c9-8.91,7.51-20.53-.69-28.79s-19.8-9.8-28.78-.89-7.5,20.52.7,28.78S121.54,139.74,130.51,130.83Zm-23.13-23.3c4.79-4.75,10.82-2.34,15,1.88s6.56,10.28,1.78,15-10.83,2.34-15-1.89S102.59,112.28,107.38,107.53Z"/><polygon class="cls-1" points="155.3 109.32 142.38 87.9 142.48 87.84 167.34 102.06 176.53 96.52 155.81 62.15 147.38 67.23 160.16 88.41 160.06 88.47 135.35 74.48 126.15 80.03 146.88 114.4 155.3 109.32"/><path class="cls-1" d="M199,89.6c3.54-1.12,7.64-3.82,9.1-8.35l1.91,4,6.43-2-6.6-21-16.09,5.06,2.33,7.41,7-2.2c.57,3.66-2,7-7,8.56-6.44,2-10.7-2.88-12.49-8.56s-1.11-12.15,5.32-14.18c4-1.27,7.87-.29,9.22,2.88l10-3.15c-3.94-9.31-13.74-10.88-21.68-8.38-11.59,3.65-16.31,14.87-12.81,26S187.4,93.25,199,89.6Z"/><polygon class="cls-1" points="252.82 71.23 230.79 72.92 230.21 65.3 249.82 63.79 249.21 55.72 229.59 57.23 229.05 50.22 250.52 48.58 249.88 40.23 217.99 42.67 221.05 82.69 253.5 80.2 252.82 71.23"/><polygon class="cls-1" points="296.06 45.2 285.25 43.75 273.49 72.29 273.37 72.28 269.54 41.65 258.73 40.2 265.94 81.66 277.86 83.26 296.06 45.2"/><rect class="cls-1" x="282.65" y="63.31" width="40.14" height="10.46" transform="translate(151.76 339.73) rotate(-73.65)"/><polygon class="cls-1" points="316.3 94.63 325.78 99.05 338.93 70.81 349.79 75.87 353.59 67.72 322.4 53.19 318.61 61.34 329.46 66.4 316.3 94.63"/><polygon class="cls-1" points="346.87 111.61 355.26 117.86 364.19 105.86 390.96 94.38 381.44 87.3 365.3 95.61 368.63 77.76 359.12 70.68 355.8 99.61 346.87 111.61"/><path class="cls-1" d="M108.28,397c-4.8-4.74-2.45-10.8,1.74-15s10.22-6.65,15-1.91c3.12,3.08,3.86,6.81,1.41,10.09l7.44,7.35c6.59-7.08,3.79-17.59-2.37-23.68-8.63-8.53-20.75-7.47-28.93.81s-9.1,20.41-.46,28.94c7.24,7.14,16.9,8.16,24.57,1.2l-7.44-7.35C115.73,400.42,111.75,400.45,108.28,397Z"/><path class="cls-1" d="M161.69,397.32c-10.78-6.61-21.72-2.43-27.8,7.5s-4.84,21.56,5.94,28.16,21.72,2.44,27.81-7.48S172.48,403.93,161.69,397.32Zm-3,22.71c-3.11,5.08-8.43,8.81-14.19,5.28s-4.83-9.95-1.72-15,8.43-8.81,14.18-5.29S161.84,415,158.72,420Z"/><polygon class="cls-1" points="207.86 418.02 193.45 441.6 193.35 441.57 194.53 413.97 179.79 409.48 168.1 447.87 177.51 450.74 186.38 421.6 186.49 421.62 185.69 453.23 193.32 455.55 210.26 428.86 210.37 428.89 201.49 458.04 210.9 460.9 222.59 422.51 207.86 418.02"/><polygon class="cls-1" points="247.64 450.25 247.53 450.25 241.2 423.33 225.8 423 224.91 463.14 234.75 463.36 235.42 432.88 235.53 432.88 243.3 463.54 251.28 463.72 260.38 433.43 260.49 433.43 259.83 463.91 269.67 464.12 270.55 423.98 255.14 423.64 247.64 450.25"/><rect class="cls-1" x="277.99" y="421" width="10.46" height="40.14" transform="translate(-67.47 51.49) rotate(-9.29)"/><polygon class="cls-1" points="320.51 410.32 287.71 420.7 290.43 429.27 301.84 425.66 311.24 455.36 321.21 452.2 311.81 422.51 323.23 418.89 320.51 410.32"/><polygon class="cls-1" points="346.92 395.29 354.8 421.78 354.7 421.84 334.98 402.48 321.78 410.42 342.48 444.81 350.91 439.73 335.2 413.63 335.3 413.57 358.23 435.33 365.07 431.21 356.58 400.76 356.68 400.7 372.39 426.81 380.81 421.73 360.12 387.35 346.92 395.29"/><polygon class="cls-1" points="391.88 399.29 386.51 393.84 400.52 380.03 394.84 374.26 380.83 388.07 375.9 383.06 391.23 367.95 385.35 361.99 362.57 384.45 390.75 413.03 413.93 390.18 407.61 383.77 391.88 399.29"/><polygon class="cls-1" points="401 338.87 421.7 352.41 421.64 352.51 393.31 350.63 387.43 359.62 421.02 381.59 426.41 373.36 405.47 359.66 405.53 359.57 434.1 361.59 439.98 352.6 406.38 330.64 401 338.87"/><polygon class="cls-1" points="427.88 300.56 419.5 297.29 407.01 329.36 415.4 332.63 419.74 321.46 448.77 332.77 452.56 323.02 423.54 311.71 427.88 300.56"/><path class="cls-1" d="M182.09,302l34.36-7.57L187.16,161.34l-26.92,5.92c3.28,21.3-14.49,32.42-33.28,36.16l5.25,23.86,31.89-7Z"/><path class="cls-1" d="M310,275.62c38.95-8.58,47-44.78,39.17-80.29S318.9,130.53,280,139.11c-37.8,8.32-44.93,44.12-37.11,79.63S272.2,283.94,310,275.62Zm-23.3-110.38c21.38-4.7,27.34,19.61,31.16,37s8.67,42.14-12.71,46.84c-20.62,4.54-27.19-19.84-31-37.21S266.09,169.78,286.71,165.24Z"/><polygon class="cls-1" points="178.74 332.3 165.79 316.02 152.52 318.94 175.08 343.52 178.77 360.26 190.46 357.68 186.78 340.95 196.93 309.17 183.66 312.09 178.74 332.3"/><polygon class="cls-1" points="217.19 332.28 239.21 327.43 237.22 318.37 215.2 323.22 213.47 315.36 237.56 310.05 235.5 300.68 199.71 308.56 209.59 353.48 246.01 345.45 243.8 335.39 219.08 340.83 217.19 332.28"/><path class="cls-1" d="M255,296.38,248.1,345l12-2.64,1.06-8.67,15.66-3.45,4.55,7.44,12.2-2.68L266.9,293.77Zm7,28,1.64-16.85.13,0,8.43,14.63Z"/><path class="cls-1" d="M324,306.4l0-.13c4.32-2.86,5.64-8,4.57-12.81-2-9.06-10.58-10.93-18.51-9.18l-22.9,5L297,334.23l11.7-2.57-3.6-16.36,8.88-1.95c5.46-1.2,7.24,3.28,8.56,7.74.4,1.23,1.56,5.6,2.9,6.88L337,325.43c-1.93-1.29-3.57-7.86-4.12-9.71C331.56,311.52,329,306.48,324,306.4Zm-11.06-2.32-9.81,2.17-2.23-10.13,9.31-2.05c3.27-.72,6.24.2,7,3.54S316.43,303.31,312.9,304.08Z"/><path class="cls-1" d="M359.91,292c-6.94-.39-13.55.41-14.32-3-.65-3,2.3-4.53,4.82-5.08,3.58-.79,7.71-.31,8.43,3.82l11.69-2.58c-2.29-10.11-12.24-12.47-21.17-10.51-8.43,1.86-17.46,7.87-15.3,17.68,1.81,8.24,9.18,9.66,16,10.07s13.46-.26,14.33,3.7c.74,3.33-2.63,5.4-6.16,6.17-5,1.1-8.61.12-10-5.11l-11.7,2.57c2.6,11.51,12.72,14,23,11.75,9.88-2.18,18.76-7.95,16.26-19.34C374,294,366.8,292.42,359.91,292Z"/><polygon class="cls-1" points="455.96 194.49 440.8 195.59 431.31 183.73 427.67 198.48 413.46 203.85 426.36 211.87 427.07 227.04 438.68 217.25 453.34 221.26 447.61 207.19 455.96 194.49"/><polygon class="cls-1" points="73.79 289.48 82.13 276.79 66.98 277.89 57.48 266.03 53.84 280.78 39.63 286.15 52.54 294.16 53.25 309.34 64.86 299.54 79.52 303.56 73.79 289.48"/></g></svg>