<?xml version="1.0" encoding="iso-8859-1"?>
<!-- Generator: Adobe Illustrator 24.2.1, SVG Export Plug-In . SVG Version: 6.00 Build 0)  -->
<svg version="1.1" id="Layer_1" xmlns="http://www.w3.org/2000/svg" xmlns:xlink="http://www.w3.org/1999/xlink" x="0px" y="0px"
	 viewBox="0 0 500 500" style="enable-background:new 0 0 500 500;" xml:space="preserve">
<g>
	<path style="fill:#03234B;" d="M469.33,201.252c-13.048-58.489-48.166-108.444-98.886-140.662
		c-50.721-32.217-110.863-42.775-169.353-29.726C142.603,43.911,92.649,79.029,60.431,129.75S17.656,240.613,30.705,299.102
		c13.047,58.491,48.166,108.447,98.886,140.666c36.541,23.212,77.966,35.179,120.147,35.179c16.367,0,32.854-1.803,49.205-5.45
		C419.871,442.519,496.307,322.186,469.33,201.252z M295.027,451.919C183.786,476.734,73.093,406.423,48.275,295.186
		C23.46,183.943,93.774,73.253,205.016,48.438c15.1-3.369,30.169-4.983,45.036-4.983c94.65,0,180.26,65.577,201.709,161.717
		C476.576,316.414,406.266,427.104,295.027,451.919z"/>
</g>
<g>
	<g>
		<g>
			<polygon style="fill:#03234B;" points="161.667,317.18 151.539,338.105 141.215,317.277 126.025,317.347 144.9,349.515 
				144.99,368.671 158.378,368.606 158.288,349.449 176.857,317.109 			"/>
		</g>
		<g>
			<polygon style="fill:#03234B;" points="193.611,356.921 193.563,347.124 218.767,347.002 218.716,336.637 193.517,336.756 
				193.472,327.76 221.052,327.626 220.996,316.9 180.029,317.09 180.271,368.505 221.96,368.304 221.908,356.785 			"/>
		</g>
		<g>
			<path style="fill:#03234B;" d="M243.325,316.791l-18.979,51.499l13.747-0.062l3.201-9.231l17.923-0.087l3.22,9.2l13.965-0.062
				l-19.468-51.321L243.325,316.791z M244.342,349.041l5.748-18.021l0.149-0.005l5.77,17.973L244.342,349.041z"/>
		</g>
		<g>
			<path style="fill:#03234B;" d="M316.329,343.953l-0.005-0.149c5.395-2.109,8.035-7.378,8.008-12.921
				c-0.05-10.369-8.998-14.433-18.072-14.39l-26.207,0.128l0.243,51.406l13.393-0.065l-0.087-18.717l10.156-0.045
				c6.26-0.034,7.147,5.287,7.537,10.47c0.147,1.44,0.387,6.484,1.551,8.203l13.243-0.059c-1.806-1.866-2.059-9.425-2.213-11.583
				C323.422,351.336,321.805,345.224,316.329,343.953z M304.784,338.823l-11.229,0.055l-0.054-11.594l10.651-0.049
				c3.745-0.021,6.775,1.693,6.794,5.512C310.967,336.635,308.819,338.805,304.784,338.823z"/>
		</g>
		<g>
			<path style="fill:#03234B;" d="M358.997,336.695c-7.496-2.057-14.914-2.738-14.934-6.701c-0.016-3.379,3.576-4.407,6.461-4.423
				c4.099-0.014,8.498,1.477,8.309,6.156l13.388-0.066c-0.129-11.591-10.445-16.508-20.67-16.464
				c-9.648,0.048-20.93,4.492-20.877,15.726c0.044,9.431,7.762,12.708,15.116,14.761c7.428,2.051,14.776,2.884,14.798,7.419
				c0.02,3.814-4.151,5.277-8.182,5.296c-5.69,0.027-9.442-1.898-9.76-7.951l-13.392,0.064
				c0.137,13.182,10.597,18.315,22.409,18.256c11.303-0.057,22.372-4.279,22.313-17.315
				C373.931,342.171,366.424,338.746,358.997,336.695z"/>
		</g>
	</g>
	<g>
		<path style="fill:#03234B;" d="M207.754,289.379h-31.381V189.048h-38.895v-23.646c21.878,0.442,41.988-7.072,45.304-30.718h24.972
			V289.379z"/>
		<path style="fill:#03234B;" d="M305.216,131.59c30.939,0,57.017,19.447,57.017,79.778c0,61.657-26.077,81.104-57.017,81.104
			c-30.497,0-56.574-19.447-56.574-81.104C248.642,151.037,274.719,131.59,305.216,131.59z M305.216,266.616
			c25.636,0,25.636-37.79,25.636-55.248c0-16.132,0-53.922-25.636-53.922c-25.193,0-25.193,37.79-25.193,53.922
			C280.022,228.827,280.022,266.616,305.216,266.616z"/>
	</g>
</g>
</svg>
